# xmcd
#
# Track frame offsets:
#	150
#	16130
#	30020
#	41982
#	56140
#	66705
#	79045
#	93420
#	104243
#	119547
#	131943
#	149143
#	168139
#	175524
#	188940
#	202465
#	218685
#	231290
#	243221
#	253289
#
# Disc length: 3526 seconds
#
# Revision: 2
# Processed by: cddbd v1.5.2PL0 Copyright (c) Steve Scherf et al.
# Submitted via: audiograbber 1.83.01
#
DISCID=350dc414
DTITLE=Various Artist - The Story Of The Blues
DYEAR=2003
DGENRE=Blues
TTITLE0=Mississippi John Hurt - Hot Time In The Old Town Tonight
TTITLE1=Mississippi John Hurt - Casey Jones
TTITLE2=Leadbelly - Goodnight Irene
TTITLE3=Leadbelly - Boll Weevil
TTITLE4=Lightnin' Hopkins - Nothin' But The Blues
TTITLE5=Lightnin' Hopkins - Evil Hearted Woman
TTITLE6=Lightnin' Slim - Things I Used To Do
TTITLE7=Lightnin' Slim - My Babe
TTITLE8=Big Joe Turner - Jump For Joy
TTITLE9=Jimmy Reed - Hones I Do
TTITLE10=Howlin' Wolf - Dust My Broom
TTITLE11=Howlin' Wolf - Shake It For Me
TTITLE12=Big Joe Williams - Terraplane Blues
TTITLE13=Muddy Waters - I Got My Mojo Working
TTITLE14=Muddy Waters - Hoochie Coochie Man
TTITLE15=Muddy Waters - Corrina Corrina
TTITLE16=Muddy Waters - Baby Please Dont Go
TTITLE17=John Lee Hooker - Whiskey and Wimmen
TTITLE18=John Lee Hooker - Dimples
TTITLE19=John Lee Hooker - Boom Boom
EXTD=\nYEAR: 2003  ID3G:   0
EXTT0=
EXTT1=
EXTT2=
EXTT3=
EXTT4=
EXTT5=
EXTT6=
EXTT7=
EXTT8=
EXTT9=
EXTT10=
EXTT11=
EXTT12=
EXTT13=
EXTT14=
EXTT15=
EXTT16=
EXTT17=
EXTT18=
EXTT19=
PLAYORDER=
